# xmcd
#
# Track frame offsets:
#	150
#	9516
#	17538
#	27259
#	43610
#	52978
#	63481
#	77185
#	86163
#	97081
#	106835
#	119465
#	131841
#	142453
#	155268
#	165878
#	174919
#	185768
#	198751
#
# Disc length: 2823 seconds
#
# Revision: 0
# Processed by: cddbd v1.5.2PL0 Copyright (c) Steve Scherf et al.
# Submitted via: EasyCDDAExtractor 15.2.5.1
#
DISCID=fa0b0513
DTITLE=Various Artist - JAVA-JAVA (V1)
DYEAR=1900
DGENRE=
TTITLE0=DARA PUSPITA - BERTAMASJA
TTITLE1=KOES BERSAUDARA - POOR CLOWN
TTITLE2=THE SWALLOWS - LA NGOMBER
TTITLE3=ROLLING BEATS - SWEETER THAN YOU
TTITLE4=PATTIE BERSAUDARA - WHAT AM I SUPPOSED TO DO
TTITLE5=THE PEELS - TINGGALKAN KU SA ORANG
TTITLE6=LOS INDONESIOS - CAN'T YOU HEAR
TTITLE7=PANBER'S - TOGETHER WE DANCE
TTITLE8=FEMALES - TALIK KUM BANG DJATI
TTITLE9=STEPS - KITJIR KITJIR
TTITLE10=KOES PLUS - KELELAWAR
TTITLE11=TIELMAN BROTHERS - MARABUNTA
TTITLE12=DARA PUSPITA - BELIEVE ME
TTITLE13=ROLLING BEATS - DON'T ASK ME WHY
TTITLE14=THE SWALLOWS - ANGKOK ANGKOK BILIS
TTITLE15=BLACK MAGIC - SURFIN' GIPSY 63
TTITLE16=THE PEELS - MARILAH KE MARI
TTITLE17=S. MONA RITA and THE KINGSTONS - BE KALAN SATRIA
TTITLE18=BENJAMIN S. - DIGEBUKIN
EXTD=
EXTT0=
EXTT1=
EXTT2=
EXTT3=
EXTT4=
EXTT5=
EXTT6=
EXTT7=
EXTT8=
EXTT9=
EXTT10=
EXTT11=
EXTT12=
EXTT13=
EXTT14=
EXTT15=
EXTT16=
EXTT17=
EXTT18=
PLAYORDER=
